<svg id="Layer_1" data-name="Layer 1" viewBox="0 0 719.9 719.8"><defs><style>.cls-1{fill:#507453}.cls-2{fill:#aacdec}.cls-3{fill:#f6a0a7}.cls-4{fill:#e88324}.cls-5{fill:none;stroke:#b4b4b4;stroke-miterlimit:10;stroke-width:0.3px}</style></defs><g id="Layer_1-2" data-name="Layer 1"><path class="cls-1" d="M180 359.9c99.4.1 179.9 80.6 179.9 180h.1v-180Z"/><path class="cls-2" d="M360 539.8c-.1 99.4-80.6 179.9-180 179.9v.1h180ZM.1 539.8C.2 440.5 80.8 360 180.1 360v-.1H.1Z"/><path class="cls-2" d="M180.1 719.8C80.7 719.7.2 639.2.2 539.8H.1v180Z"/><path class="cls-3" d="M.1 539.8c0 99.4 80.6 180 180 180v-360c-99.4.1-180 80.6-180 180Z"/><path class="cls-4" d="M180 539.8v180c99.4 0 180-80.6 180-180Z"/></g><g id="Layer_2" data-name="Layer 2"><path class="cls-5" d="M0 360h360M0 420h360M0 479.9h360M0 539.8h360M0 599.8h360M0 659.8h360M.2 719.8V359.9M60.1 719.8V359.9M120.1 719.8V359.9M180 719.8V359.9M239.9 719.8V359.9M299.9 719.8V359.9M359.9 359.9v359.9"/></g><g id="Layer_1-3" data-name="Layer 1"><path class="cls-2" d="M360-.2H0v360C0 161 161.2-.2 360-.2Z"/><path class="cls-1" d="M0 359.9c198.8 0 360-161.2 360-360C161.2-.2 0 161 0 359.9Z"/><path class="cls-3" d="M0 359.9h360V-.1c0 198.8-161.2 360-360 360Z"/></g><g id="Layer_2-2" data-name="Layer 2"><path class="cls-5" d="M0 0h360M0 59.9h360M0 119.9h360M0 179.9h360M0 239.8h360M0 299.8h360M0 359.7h360M.2 359.9V-.2M60.1 359.9V-.2M120.1 359.9V-.2M180 359.9V-.2M239.9 359.9V-.2M299.9 359.9V-.2M359.9 359.9V-.2"/></g><g id="Layer_1-4" data-name="Layer 1"><path class="cls-2" d="M540 119.9h.1V-.2c-99.4 0-180 80.6-180 180H480a60.09 60.09 0 0 1 60-59.9Z"/><path class="cls-1" d="M480.2 180v-.1h-120c0 99.4 80.6 180 180 180V240a60 60 0 0 1-60-60ZM600 179.7v.1h120c0-99.4-80.6-180-180-180v119.9a60.11 60.11 0 0 1 60 60Z"/><path class="cls-4" d="M540-.2c99.4.1 179.9 80.6 179.9 180h.1V-.2Z"/><path class="cls-4" d="M360.1 179.9C360.2 80.5 440.8 0 540.1 0v-.1h-180v180ZM720 179.9c-.1 99.4-80.6 179.9-180 179.9v.1h180Z"/><path class="cls-4" d="M540.1 359.9c-99.4-.1-179.9-80.6-179.9-180h-.1v180Z"/><path class="cls-2" d="M540.1 239.9h-.1v120c99.4 0 180-80.6 180-180H600.1a60 60 0 0 1-60 60Z"/></g><g id="Layer_2-3" data-name="Layer 2"><path class="cls-5" d="M360 0h360M360 59.9h360M360 119.9h360M360 179.9h360M360 239.8h360M360 299.8h360M360 359.7h360M360.1 359.9V-.2M420.1 359.9V-.2M480 359.9V-.2M540 359.9V-.2M600 359.9V-.2M659.9 359.9V-.2M719.8 359.9V-.2"/></g><g id="Layer_1-5" data-name="Layer 1"><path class="cls-4" d="M720.1 719.9h-360l360-360v360z"/><path class="cls-2" d="M540.2 479.8a59.7 59.7 0 0 1 42.4 17.6l137.6-137.6h-360v360l137.6-137.6a60 60 0 0 1 42.4-102.4Z"/><path class="cls-1" d="M540.2 719.8c99.4 0 180-80.6 180-180h-360c0 99.4 80.6 180 180 180Z"/></g><g id="Layer_2-4" data-name="Layer 2"><path class="cls-5" d="M360.1 719.6h360M360.1 359.9h360M360.1 419.9h360M360.1 479.8h360M360.1 539.8h360M360.1 599.7h360M360.1 659.7h360M360.2 719.8v-360M420.2 719.8v-360M480.1 719.8v-360M540.1 719.8v-360M600 719.8v-360M660 719.8v-360M719.9 719.8v-360"/></g></svg>