<svg xmlns="http://www.w3.org/2000/svg" viewBox="0 0 360 360"><defs><style>.cls-1{fill:#507453;}.cls-2{fill:#aacdec;}.cls-3{fill:#f6a0a7;}.cls-4{fill:#e88324;}.cls-5{fill:none;stroke:#b4b4b4;stroke-miterlimit:10;stroke-width:0.3px;}</style></defs><g id="Layer_1" data-name="Layer 1"><path class="cls-1" d="M180,0h0A180,180,0,0,1,359.86,180H360V0Z"/><path class="cls-2" d="M360,180h0A180,180,0,0,1,180,359.86V360H360Z"/><path class="cls-2" d="M.14,180h0A180,180,0,0,1,180.14.14V0H.14Z"/><path class="cls-2" d="M180.14,360h0A180,180,0,0,1,.28,180H.14V360Z"/><path class="cls-3" d="M.14,180a180,180,0,0,0,180,180V0A180,180,0,0,0,.14,180Z"/><path class="cls-4" d="M180,180V360h0A180,180,0,0,0,360,180Z"/></g><g id="Layer_2" data-name="Layer 2"><line class="cls-5" y1="0.15" x2="360" y2="0.15"/><line class="cls-5" y1="60.1" x2="360" y2="60.1"/><line class="cls-5" y1="120.05" x2="360" y2="120.05"/><line class="cls-5" y1="180" x2="360" y2="180"/><line class="cls-5" y1="239.95" x2="360" y2="239.95"/><line class="cls-5" y1="299.9" x2="360" y2="299.9"/><line class="cls-5" x1="0.15" y1="360" x2="0.15"/><line class="cls-5" x1="60.1" y1="360" x2="60.1"/><line class="cls-5" x1="120.05" y1="360" x2="120.05"/><line class="cls-5" x1="180" y1="360" x2="180"/><line class="cls-5" x1="239.95" y1="360" x2="239.95"/><line class="cls-5" x1="299.9" y1="360" x2="299.9"/><line class="cls-5" x1="359.85" x2="359.85" y2="360"/></g></svg>