<?xml version="1.0" encoding="utf-8"?>
<!-- Generator: Adobe Illustrator 24.3.0, SVG Export Plug-In . SVG Version: 6.00 Build 0)  -->
<svg version="1.1" id="Layer_1" xmlns="http://www.w3.org/2000/svg" xmlns:xlink="http://www.w3.org/1999/xlink" x="0px" y="0px"
	 viewBox="0 0 784.4 255.4" style="enable-background:new 0 0 784.4 255.4;" xml:space="preserve">
<style type="text/css">
	.st0{fill:#507453;}
</style>
<path class="st0" d="M123.5,5.8v145.1h13.9v5.6h-18.9L49.2,15.6v135.3h17v5.6H0v-5.6h17.6V5.8H0V0h47.9l69.9,142.4V5.8h-17V0h45v5.8
	H123.5z"/>
<path class="st0" d="M168.7,97.1c0,5.5,0,11,0,16.5s0,11,0,16.5c0,5.7,2,10.6,6.1,14.6c4.1,4.1,9,6.1,14.6,6.1
	c9,0,17.6-2.3,25.7-6.9c8.2-4.6,14.5-10.7,18.9-18.5l5,2.9c-5,8.6-12,15.4-21.1,20.4c-9.1,5.1-18.6,7.6-28.5,7.6
	c-15.6,0-28.9-5.6-39.7-16.9c-10.9-11.3-16.3-24.7-16.3-40.1c0-15.5,5.4-28.9,16.3-40.3c10.9-11.3,24.1-17,39.7-17
	c7.7,0,14.6,1.2,20.4,3.6c5.9,2.4,11,5.8,15.3,10.3c5.5,5.5,9.4,11.9,11.7,19s3.8,14.5,4.5,22.1L168.7,97.1L168.7,97.1z M210.2,80
	c0-3.8,0-7.6,0-11.5c0-5.7-2-10.5-6.1-14.5s-9-6-14.6-6c-5.7,0-10.6,2-14.6,6c-4.1,4-6.1,8.9-6.1,14.5c0,3.9,0,7.7,0,11.5
	s0,7.6,0,11.5h41.5C210.2,87.6,210.2,83.8,210.2,80z"/>
<path class="st0" d="M391.5,62c-3.9,5.4-9.8,8.2-17.5,8.5c-4.6,14.3-9.1,28.5-13.7,42.9c-4.6,14.3-9.1,28.7-13.7,43.1h-33l-6.4-25.3
	c-0.7,2.1-1.4,4.2-2.1,6.3s-1.3,4.3-1.9,6.3c-0.7,2.1-1.4,4.2-2.1,6.3c-0.7,2.2-1.4,4.3-2.1,6.3h-33c-2.2-9-4.5-18-6.8-27.1
	c-2.4-9.1-4.6-18.2-6.8-27.3c-2.4-9-4.7-18-7-27.1s-4.5-18.1-6.7-27.1h-7.1V42c2.9,0,5.7,0,8.5,0s5.5,0,8.1,0c0.1,0,0.3,0,0.4,0
	c0.1,0,0.3,0,0.4,0c6.1,0.1,11.8,2.2,17.1,6.2c5.3,4,8.7,9,10.3,14.9c3.2,13.8,6.4,27.7,9.8,41.6c3.3,13.9,6.6,27.8,10,41.6
	l8.3-25.9L286,47.9h-6.8v-5.8c2.8,0,5.5,0,8.3,0s5.5,0,8.3,0c0.1,0,0.3,0,0.4,0s0.3,0,0.4,0c6.1,0.1,11.8,2.2,17.1,6.2
	c5.3,4,8.7,9,10.1,14.9c3.3,13.8,6.6,27.7,10,41.6c3.3,13.9,6.6,27.8,10,41.8L368.3,70c-2.4-0.6-4.6-1.4-6.7-2.5s-4-2.6-5.7-4.4
	c-1-1-1.8-2-2.4-3.2s-1.1-2.4-1.4-3.6c0-0.3,0-0.6-0.1-1s-0.1-0.8-0.1-1.2c0.1-3.5,1.4-6.6,3.8-9.3c2.4-2.8,5.6-4.1,9.6-4.1
	c3.9,0,7.1,1.3,9.5,4c2.5,2.7,3.7,5.8,3.5,9.4c0,0.6,0,1.2-0.1,2s-0.2,1.5-0.5,2.2c-0.3,1-0.6,2-0.9,3s-0.7,2.1-0.9,3.2
	c5.7-0.8,9.7-3.3,12.1-7.4s3.6-8.7,3.6-14h5.8C397.4,50.4,395.4,56.7,391.5,62z"/>
<path class="st0" d="M487.6,148c-5.7,5.7-12.6,8.5-20.6,8.5s-14.9-2.8-20.5-8.5c-5.7-5.7-8.5-12.5-8.5-20.5c0-20.3,0-40.6,0-60.9
	s0-40.5,0-60.7h-7.7V0c1.9,0,3.7,0,5.4,0c1.7,0,3.3,0,5,0c8.2,0,15.1,2.8,20.8,8.5C467.2,14.2,470,21,470,29c0,20.3,0,40.6,0,60.9
	s0,40.5,0,60.7c5.8-0.7,10.7-3.2,14.6-7.7c3.9-4.4,5.9-9.6,5.9-15.6c0-0.3,0-0.6,0-0.8c0-0.3,0-0.6,0-1c0-0.3,0-0.5,0-0.8
	s0-0.6,0-0.8h5.8c0,0.3,0,0.6,0,0.8c0,0.3,0,0.6,0,0.8c0,0.4,0,0.8,0,1c0,0.3,0,0.6,0,0.8C496.2,135.4,493.3,142.3,487.6,148z"/>
<path class="st0" d="M519,97.1c0,5.5,0,11,0,16.5s0,11,0,16.5c0,5.7,2,10.6,6.1,14.6c4.1,4.1,9,6.1,14.6,6.1c9,0,17.6-2.3,25.7-6.9
	c8.2-4.6,14.5-10.7,18.9-18.5l5,2.9c-5,8.6-12,15.4-21.1,20.4c-9.1,5.1-18.6,7.6-28.5,7.6c-15.6,0-28.9-5.6-39.7-16.9
	c-10.9-11.3-16.3-24.7-16.3-40.1c0-15.5,5.4-28.9,16.3-40.3c10.9-11.3,24.1-17,39.7-17c7.7,0,14.6,1.2,20.4,3.6
	c5.9,2.4,11,5.8,15.3,10.3c5.5,5.5,9.4,11.9,11.7,19s3.8,14.5,4.5,22.1L519,97.1L519,97.1z M560.5,80c0-3.8,0-7.6,0-11.5
	c0-5.7-2-10.5-6.1-14.5s-9-6-14.6-6c-5.7,0-10.6,2-14.6,6c-4.1,4-6.1,8.9-6.1,14.5c0,3.9,0,7.7,0,11.5s0,7.6,0,11.5h41.5
	C560.5,87.6,560.5,83.8,560.5,80z"/>
<path class="st0" d="M731.1,136.8c-1.1,3.9-3.4,7.6-6.9,11.2c-2.6,2.6-5.7,4.7-9.2,6.2s-7.3,2.3-11.3,2.3s-7.8-0.8-11.3-2.3
	s-6.6-3.6-9.2-6.2c-4.4,2.9-9.1,5-14.1,6.4s-10,2.1-15.1,2.1c-0.4,0-0.8,0-1.1,0s-0.7,0-1.1,0c-6.8-0.3-13.4-1.8-19.9-4.7
	c-6.5-2.8-12.3-6.9-17.4-12.1c-5.5-5.7-9.6-12-12.3-19s-4-14.1-4-21.5c0-7.3,1.4-14.5,4.2-21.5s6.8-13.2,12.2-18.8
	c5.4-5.5,11.5-9.7,18.5-12.6c6.9-2.8,14-4.3,21.2-4.3c3.6,0,7.1,0.3,10.5,1s6.7,1.7,10.1,3.1V42h32v108.5c2.8-0.3,5.3-1,7.6-2.2
	s4.3-2.7,6.1-4.5c2.9-3,4.8-6.2,5.7-9.4c0.9-3.3,1.3-6.8,1.3-10.7h5.6C732.7,128.6,732.2,132.9,731.1,136.8z M675.8,136
	c-0.9-2.7-1.4-5.6-1.4-8.6V52.3c-3.2-1.5-6.5-2.6-10.1-3.3c-3.5-0.7-7.1-1-10.7-1c-5.7,0-10.5,2-14.5,6s-6,8.9-6,14.5
	c0,10.2,0,20.5,0,30.8s0,20.6,0,30.8c0,5.7,2,10.6,6.1,14.6c4.1,4.1,9,6.1,14.6,6.1c4.4,0,8.8-0.6,13.2-1.9c4.4-1.2,8.5-3,12.4-5.4
	C677.9,141.2,676.7,138.7,675.8,136z"/>
<path class="st0" d="M757.8,47.9v108.5h-32.2V47.9H714v-5.8h11.6v-13c0-8,2.9-14.9,8.6-20.5C740,2.8,746.9,0,754.9,0
	c3.9,0,7.6,0.7,11.2,2.2c3.6,1.5,6.7,3.6,9.3,6.3l-3.9,4.1c-1.8-1.9-3.9-3.5-6.2-4.7c-2.4-1.2-4.8-1.9-7.5-2.2V42h26.6v5.8h-26.6
	V47.9z"/>
<path class="st0" d="M26,254.5v-54.1h15.3l14.4,37.5h0.1v-37.5h10.6v54.1H51.5l-14.8-39.6h-0.2v39.6H26z"/>
<path class="st0" d="M71.8,254.5l15-54.1h14.9l14.7,54.1h-11.9l-3-12H86.1l-3.1,12H71.8z M93.6,210.8L93.6,210.8l-5.3,23.4h10.8
	L93.6,210.8z"/>
<path class="st0" d="M149.5,200.4v9h-12.6v45.1h-11.3v-45.1H113v-9H149.5z"/>
<path class="st0" d="M191.3,200.4v38.4c0,8.1-4.6,16.6-18.4,16.6c-12.4,0-18.4-6.4-18.4-16.6v-38.4h11.3V238c0,6.7,2.8,9.3,7,9.3
	c4.9,0,7.2-3.3,7.2-9.3v-37.6H191.3z"/>
<path class="st0" d="M211.6,254.5h-11.3v-54.1h20.9c7.7,0,12.7,4.9,12.7,14.2c0,6.9-2.7,12.1-10,13.3v0.1c2.5,0.3,9.8,0.9,9.8,10.6
	c0,3.4,0.2,13.6,1.3,15.9h-11.1c-1.5-3.3-1.2-7-1.2-10.5c0-6.4,0.6-11.9-8.1-11.9h-2.9L211.6,254.5L211.6,254.5z M211.6,223.7h5
	c4.5,0,5.8-4.5,5.8-7.9c0-5.2-2.2-7.1-5.8-7.1h-5V223.7z"/>
<path class="st0" d="M241.6,227.4c0-14.3,0-27.9,18.7-27.9s18.7,13.6,18.7,27.9c0,14.2,0,28-18.7,28S241.6,241.6,241.6,227.4z
	 M267.5,227.4c0-13.9-0.8-19.9-7.2-19.9c-6.4,0-7.2,6-7.2,19.9s0.8,19.9,7.2,19.9C266.7,247.3,267.5,241.3,267.5,227.4z"/>
<path class="st0" d="M288,200.4h20.4c10.3,0,14.4,6.3,14.4,16.2c0,6.1-1.8,15.9-15.1,15.9h-8.4v22H288V200.4z M299.3,224.1h6.3
	c3.4,0,5.7-3.7,5.7-7.3c0-4.4-1.2-8.2-6.3-8.2h-5.7V224.1z"/>
<path class="st0" d="M321.8,254.5l15-54.1h14.9l14.7,54.1h-11.9l-3-12H336l-3.1,12H321.8z M343.6,210.8h-0.1l-5.2,23.4H349
	L343.6,210.8z"/>
<path class="st0" d="M399.4,200.4v9h-12.6v45.1h-11.3v-45.1h-12.6v-9H399.4z"/>
<path class="st0" d="M429.3,222v-21.7h11.3v54.1h-11.3v-24.1h-13v24.1H405v-54.1h11.3V222H429.3z"/>
<path class="st0" d="M450.4,254.5v-54.1h11.3v54.1H450.4z"/>
<path class="st0" d="M470.7,227.4c0-14.3,0-27.9,18.7-27.9c11.5,0,16.2,6.4,15.7,18H494c0-7.2-1.3-9.9-4.6-9.9
	c-6.4,0-7.2,6-7.2,19.9s0.8,19.9,7.2,19.9c5.2,0,5-6.7,5.2-11h11.2c0,14.5-5.8,19.1-16.3,19.1C470.7,255.4,470.7,241.6,470.7,227.4z
	"/>
<path class="st0" d="M554.2,222v-21.7h11.3v54.1h-11.3v-24.1h-13v24.1h-11.3v-54.1h11.3V222H554.2z"/>
<path class="st0" d="M575.3,254.5v-54.1h29.5v8.3h-18.2V222h16.8v8.3h-16.8v15.8h18.8v8.3L575.3,254.5L575.3,254.5z"/>
<path class="st0" d="M608.7,254.5l15-54.1h14.9l14.7,54.1h-11.9l-3-12H623l-3.1,12H608.7z M630.5,210.8L630.5,210.8l-5.3,23.4H636
	L630.5,210.8z"/>
<path class="st0" d="M658.7,254.5v-54.1H670v45.1h16.9v9H658.7z"/>
<path class="st0" d="M719.8,200.4v9h-12.6v45.1h-11.3v-45.1h-12.6v-9H719.8z"/>
<path class="st0" d="M749.7,222v-21.7H761v54.1h-11.3v-24.1h-13v24.1h-11.3v-54.1h11.3V222H749.7z"/>
</svg>
